<svg width="845" height="703" viewBox="0 0 845 703" fill="none" xmlns="http://www.w3.org/2000/svg">
<g filter="url(#filter0_d_2066_221)">
<rect x="379.896" y="201.465" width="12.8422" height="12.8422" rx="6.42109" fill="url(#paint0_linear_2066_221)"/>
</g>
<g filter="url(#filter1_d_2066_221)">
<rect x="727.491" y="366.701" width="12.8422" height="12.8422" rx="6.42109" fill="url(#paint1_linear_2066_221)"/>
</g>
<g filter="url(#filter2_d_2066_221)">
<rect x="590.508" y="496.835" width="12.8422" height="12.8422" rx="6.42109" fill="url(#paint2_linear_2066_221)"/>
</g>
<g filter="url(#filter3_d_2066_221)">
<path d="M346.507 499.832C346.507 492.503 352.448 486.562 359.777 486.562V486.562C367.106 486.562 373.047 492.503 373.047 499.832V499.832C373.047 507.161 367.106 513.102 359.777 513.102V513.102C352.448 513.102 346.507 507.161 346.507 499.832V499.832Z" fill="url(#paint3_linear_2066_221)"/>
</g>
<g filter="url(#filter4_d_2066_221)">
<rect x="582.803" y="447.179" width="15.4106" height="15.4106" rx="7.7053" fill="url(#paint4_linear_2066_221)"/>
</g>
<g filter="url(#filter5_d_2066_221)">
<rect x="170.141" y="446.323" width="15.4106" height="15.4106" rx="7.7053" fill="url(#paint5_linear_2066_221)"/>
</g>
<g filter="url(#filter6_d_2066_221)">
<rect x="501.469" y="516.527" width="7.7053" height="7.7053" rx="3.85265" fill="url(#paint6_linear_2066_221)"/>
</g>
<path d="M431.664 78.0969C431.664 78.0969 356.109 80.5414 336.986 115.374C318.362 149.297 353.754 213.04 353.754 213.04C353.754 213.04 405.454 298.12 391.202 352.797C366.872 446.14 211.577 349.703 156.125 428.633C94.371 516.535 189.794 701.646 189.794 701.646" stroke="#01FF88" stroke-width="0.8"/>
<path d="M679.083 654.917C679.083 654.917 730.779 599.764 719.671 561.611C708.853 524.455 638.754 504.408 638.754 504.408C638.754 504.408 542.036 480.805 513.451 432.065C464.652 348.857 642.652 307.238 626.051 212.215C607.562 106.393 409.194 42.9741 409.194 42.9741" stroke="#01FF88" stroke-width="0.8"/>
<path d="M475.473 360.742C485.601 364.457 497.266 369.633 509.703 391.925C522.138 414.217 532.01 446.729 523.804 456.946C515.6 467.163 502.011 464.642 499.96 458.67C497.907 452.7 475.473 360.742 475.473 360.742Z" fill="#FF04AA"/>
<path d="M422.842 362.319C408.508 367.676 394.174 380.454 387.205 397.968C380.237 415.484 376.673 436.246 383.224 445.569C391.188 456.904 410.3 450.722 415.278 440.624C420.254 430.527 422.842 362.319 422.842 362.319Z" fill="#FF04AA"/>
<path d="M452.352 357.2C430.498 357.859 415.817 358.948 412.133 376.743C408.898 392.369 408.989 463.371 407.373 481.454C404.821 510.021 404.457 516.568 406.606 517.521C408.755 518.475 431.32 523.719 466.167 522.289C501.014 520.858 510.226 519.11 511.454 514.978C512.681 510.848 510.685 503.061 510.072 498.296C509.458 493.53 494.697 400.133 491.343 382.781C487.966 365.305 483.974 356.246 452.352 357.2V357.2Z" fill="#FF7BBB"/>
<path d="M504.568 429.871C513.084 428.622 524.056 433.853 523.927 445.397C523.799 456.941 511.748 465.3 496.108 463.31C480.468 461.321 449.059 454.95 436.88 452.031C424.7 449.112 412.65 446.458 409.188 442.876C405.727 439.293 407.778 435.179 410.727 435.179C413.675 435.179 416.366 439.293 440.342 439.293C464.314 439.293 487.39 432.392 504.568 429.871V429.871Z" fill="#FDC68A"/>
<path d="M393.969 447.841C384.725 445.88 382.82 433.417 384.811 418.787C386.205 408.551 396.507 383.192 401.625 367.854C407.114 351.402 410.098 347.038 412.891 348.373C416.492 350.096 412.248 356.004 412.646 363.628C413.044 371.251 414.156 400.108 414.3 414.946C414.499 435.552 405.548 450.298 393.969 447.841V447.841Z" fill="#FDC68A"/>
<path d="M419.264 262.163C419.264 262.163 400.578 254.743 412.842 242.757C425.103 230.767 445.538 230.198 451.963 235.333C458.384 240.473 456.632 260.453 454.297 261.592C451.963 262.736 422.183 265.017 419.264 262.163V262.163Z" fill="#5A381D"/>
<path d="M461.601 360.879L458.469 317.048L441.843 315.901L441.141 359.079C442.829 370.115 460.375 366.832 461.601 360.879Z" fill="#ED9F5E"/>
<path d="M490.48 296.315C494.178 319.942 481.586 347.8 461.475 351.199C434.861 355.694 417.337 328.32 413.637 304.687C409.933 281.058 426.404 261.209 449.057 257.378C471.71 253.545 486.777 272.686 490.48 296.315V296.315Z" fill="#FDC68A"/>
<path d="M454.576 318.047C455.718 317.575 456.947 317.282 458.211 317.29C459.454 317.302 460.825 317.612 461.775 318.697C462.218 319.229 462.473 320.078 462.204 320.772C462.138 321.14 461.894 321.402 461.741 321.713C461.516 321.958 461.294 322.212 461.05 322.427C460.051 323.271 458.862 323.707 457.689 324.065C458.757 323.441 459.861 322.881 460.704 322.026C461.564 321.228 462.021 319.959 461.254 319.145C460.558 318.307 459.34 317.944 458.182 317.825C456.997 317.711 455.792 317.853 454.576 318.047V318.047Z" fill="#9D5F54"/>
<path d="M445.902 332.328C447.878 332.977 449.792 333.513 451.751 334.083C453.693 334.668 455.953 334.118 457.837 334.923C455.661 334.805 453.289 335.497 451.286 334.923C450.292 334.621 449.311 334.285 448.39 333.863C447.471 333.446 446.588 332.951 445.902 332.328Z" fill="#9D5F54"/>
<path d="M453.064 335.107C454.996 334.626 456.763 334.052 458.596 333.489C460.435 332.953 462.261 332.378 464.313 332.136C462.86 333.365 461.127 334.177 459.263 334.763C458.319 335.034 457.344 335.257 456.309 335.342C455.279 335.431 454.184 335.407 453.064 335.107V335.107Z" fill="#9D5F54"/>
<path d="M466.79 311.394C466.983 312.157 467.735 312.616 468.472 312.417C469.208 312.219 469.652 311.44 469.461 310.677C469.269 309.914 468.516 309.456 467.778 309.654C467.041 309.852 466.599 310.632 466.79 311.394Z" fill="#5B3118"/>
<path d="M464.909 297.009C474.373 298.536 483.177 301.009 477.08 300.492C470.982 299.976 458.666 296.001 464.909 297.009Z" fill="#935025"/>
<path d="M444.583 311.394C444.392 312.157 443.639 312.616 442.902 312.417C442.165 312.219 441.722 311.44 441.913 310.677C442.105 309.914 442.858 309.456 443.595 309.654C444.331 309.852 444.775 310.632 444.583 311.394V311.394Z" fill="#5B3118"/>
<path d="M446.459 297.009C436.993 298.536 428.19 301.009 434.287 300.492C440.385 299.976 452.701 296.001 446.459 297.009Z" fill="#935025"/>
<path d="M436.792 315.264C436.792 316.069 434.775 316.722 432.287 316.722C429.798 316.722 427.78 316.069 427.78 315.264C427.78 314.459 429.798 313.806 432.287 313.806C434.775 313.806 436.792 314.459 436.792 315.264Z" fill="#F69D98"/>
<path d="M484.294 315.264C484.294 316.069 482.277 316.722 479.789 316.722C477.302 316.722 475.283 316.069 475.283 315.264C475.283 314.459 477.302 313.806 479.789 313.806C482.277 313.806 484.294 314.459 484.294 315.264Z" fill="#F69D98"/>
<path d="M463.304 256.216L459.633 252.923C454.054 248.617 444.959 247.228 429.619 251.456C417.387 254.827 403.311 261.675 404.8 283.621C405.422 292.794 409.713 299.907 411.834 308.568C413.894 308.672 415.453 308.326 417.151 309.598C418.471 310.586 420.208 313.574 420.723 314.512C419.81 304.277 419.618 295.715 428.631 289.867C436.854 284.535 439.484 275.684 438.17 271.373C444.176 269.704 454.625 271.971 459.078 267.62C464.239 262.58 467.265 259.899 463.304 256.216V256.216Z" fill="#794D2E"/>
<path d="M452.673 251.166C446.697 251.908 435.802 259.384 432.822 264.792L432.395 265.195C426.734 272.323 451.92 290.669 457.747 293.603C464.192 296.848 473.403 303.382 480.093 304.556C480.187 303.456 477.478 294.753 477.386 294.226C479.06 298.036 480.462 299.449 481.4 300.603C488.171 308.937 490.389 314.606 491.263 320.386C496.851 302.938 498.196 275.692 484.386 261.544C476.767 253.737 468.197 249.239 452.673 251.166V251.166Z" fill="#794D2E"/>
<path d="M422.585 312.285C424.242 317.083 424.187 320.65 421.345 321.72C418.501 322.795 412.375 320.45 410.72 315.65C409.063 310.855 410.03 306.099 412.875 305.027C415.723 303.946 420.933 307.497 422.585 312.285V312.285Z" fill="#FDC68A"/>
<path d="M406.581 354.191C406.149 349.297 406.73 343.286 408.061 340.331C410.397 335.157 415.459 335.558 418.495 336.982C421.53 338.405 421.551 345.114 420.532 347.292C417.807 353.117 413.321 353.824 412.437 356.353C411.281 357.692 406.59 356.284 406.581 354.191Z" fill="#FDC68A"/>
<path d="M413.772 334.273C418.952 335.351 418.849 337.832 418.741 341.768C418.653 344.932 415.064 345.474 411.191 344.864C408.442 344.431 407.367 342.36 407.367 342.36C407.367 342.36 409.195 333.32 413.772 334.273V334.273Z" fill="#FDC68A"/>
<path d="M409.946 340.424C409.867 341.277 409.895 342.153 410.153 342.935C410.399 343.729 411.001 344.315 411.729 344.63C412.451 344.964 413.26 345.113 414.068 345.202C414.872 345.298 415.681 345.284 416.436 345.065C417.191 344.85 417.871 344.392 418.333 343.737C418.806 343.089 419.064 342.284 419.172 341.469C419.303 340.636 419.132 339.829 418.898 339.003C418.686 338.187 418.432 337.357 417.902 336.688C418.498 337.297 418.86 338.115 419.146 338.923C419.276 339.34 419.418 339.729 419.503 340.179C419.577 340.62 419.591 341.065 419.557 341.509C419.493 342.394 419.211 343.276 418.695 344.012C418.188 344.756 417.413 345.298 416.574 345.55C415.734 345.819 414.847 345.805 414.013 345.691C413.181 345.578 412.336 345.411 411.548 345.025C410.765 344.633 410.107 343.896 409.899 343.017C409.689 342.145 409.782 341.263 409.946 340.424V340.424Z" fill="#D28C56"/>
<path d="M415.812 347.743C417.637 350.9 420.642 349.631 422.601 347.383C424.559 345.133 425.37 343.192 424.382 341.74C423.393 340.289 416.495 340.09 415.931 342.188C415.367 344.286 417.041 344.98 418.733 344.754C415.64 346.003 415.812 347.743 415.812 347.743V347.743Z" fill="#FCBC81"/>
<path d="M409.823 339.017C409.97 339.403 409.986 339.743 410.084 340.04C410.103 340.196 410.161 340.317 410.212 340.407C410.256 340.506 410.403 340.561 410.606 340.595C410.488 340.756 410.234 340.866 409.989 340.731C409.755 340.601 409.668 340.361 409.6 340.169C409.534 339.757 409.562 339.349 409.823 339.017V339.017Z" fill="#D28C56"/>
<path d="M416.274 348.6C415.932 348.049 415.926 347.311 416.163 346.688C416.398 346.057 416.863 345.551 417.374 345.158C417.902 344.783 418.494 344.516 419.105 344.362C419.712 344.188 420.342 344.145 420.961 344.135C419.759 344.42 418.54 344.714 417.574 345.449C417.082 345.793 416.667 346.252 416.406 346.799C416.156 347.342 416.052 347.994 416.274 348.6Z" fill="#D28C56"/>
<path d="M416.474 341.542C416.01 342.203 415.883 343.072 416.307 343.679C416.491 343.996 416.796 344.224 417.127 344.41C417.457 344.6 417.835 344.71 418.216 344.84C417.819 344.842 417.404 344.823 417.018 344.66C416.631 344.513 416.268 344.247 416.018 343.876C415.79 343.493 415.689 343.015 415.796 342.584C415.89 342.152 416.145 341.779 416.474 341.542V341.542Z" fill="#D28C56"/>
<path d="M483.19 413.103C483.325 415.411 470.297 418.108 454.091 419.129C437.883 420.148 424.636 419.105 424.501 416.798C424.366 414.489 437.394 411.791 453.6 410.773C469.807 409.752 483.054 410.796 483.19 413.103V413.103Z" fill="#FF04AA"/>
<path d="M168.33 354.163C168.536 351.374 168.208 348.408 166.066 346.969C161.978 344.225 157.007 340.679 154.908 338.45C152.942 336.361 155.571 331.689 157.524 329.269C159.479 326.85 161.921 326.426 163.776 328.032C165.784 329.771 168.087 331.483 172.82 336.356C175.729 339.353 173.96 342.134 175.251 353.174C174.183 355.073 169.938 355.622 168.33 354.163V354.163Z" fill="#FDC68A"/>
<path d="M166.997 333.232C162.719 327.437 160.486 323.79 159.072 321.118C157.657 318.445 157.207 317.144 155.827 318.147C154.447 319.149 157.47 326.754 157.47 326.754C157.47 326.754 147.135 320.744 145.763 323.766C143.991 327.674 143.18 329.824 146.257 332.809C149.335 335.796 156.503 338.463 159.703 341.553C162.902 344.645 166.084 340.966 166.997 333.232Z" fill="#FDC68A"/>
<path d="M150.043 332.14L149.037 308.081L171.004 307.098L172.01 331.156L150.043 332.14V332.14ZM148.028 294.165C147.941 292.111 147.95 290.079 148.058 288.065C148.162 286.053 148.553 284.124 149.235 282.279C149.915 280.438 150.976 278.652 152.418 276.922C153.86 275.19 155.83 273.585 158.323 272.1C159.337 271.468 160.793 270.62 162.688 269.555C164.584 268.49 166.472 267.229 168.353 265.772C170.231 264.319 171.845 262.702 173.191 260.926C174.536 259.152 175.167 257.239 175.08 255.184C174.986 252.935 174.062 251.186 172.305 249.945C170.55 248.7 168.537 248.129 166.27 248.229C164.569 248.306 163.117 248.716 161.92 249.454C160.719 250.193 159.691 251.075 158.835 252.089C157.978 253.108 157.264 254.145 156.693 255.2C156.121 256.254 155.568 257.138 155.029 257.847L137.354 245.998C139.56 239.923 143.238 235.104 148.391 231.542C153.543 227.982 159.522 226.047 166.323 225.743C169.913 225.581 173.573 225.957 177.304 226.868C181.033 227.778 184.435 229.339 187.51 231.555C190.584 233.767 193.122 236.739 195.123 240.471C197.125 244.203 198.242 248.806 198.469 254.282C198.665 258.976 198.017 263.294 196.527 267.229C195.034 271.168 192.224 274.698 188.096 277.821C186.078 279.382 184.005 280.748 181.878 281.92C179.748 283.095 177.787 284.261 175.989 285.417C174.192 286.578 172.726 287.768 171.595 288.995C170.461 290.221 169.931 291.619 169.996 293.18L148.028 294.165V294.165Z" fill="url(#paint7_linear_2066_221)"/>
<path d="M268.865 342.334C256.32 344.812 238.993 346.788 221.344 372.562C203.696 398.336 188.937 417.431 184.618 424.432C180.3 431.433 175.283 443.026 183.419 452.84C191.553 462.655 206.218 450.926 218.949 435.792C231.681 420.659 244.778 403.415 252.476 391.198C260.172 378.982 272.061 347.7 268.865 342.334Z" fill="#ECECE8"/>
<path d="M166.06 352.765C168.541 352.927 174.65 351.773 176.977 350.438C179.559 359.255 185.591 381.014 191.031 397.249C198.389 419.208 213.619 441.573 199.139 451.209C186.177 459.834 179.132 453.808 173.979 429.947C168.364 403.944 166.06 352.765 166.06 352.765V352.765Z" fill="#ECECE8"/>
<path d="M362.582 289.19C349.482 301.568 308.102 348.58 304.412 354.891C300.722 361.2 324.868 403.616 330.765 395.406C338.143 385.135 365.467 350.436 377.832 330.626C387.36 315.361 392.311 304.379 394.225 298.211C397.636 287.229 396.398 278.789 387.784 276.442C380.583 274.48 371.299 280.952 362.582 289.19V289.19Z" fill="#ECECE8"/>
<path d="M282.461 338.531C255.571 338.035 240.704 351.182 236.77 371.52C232.835 391.859 231.305 496.531 231.742 507.693C232.179 518.853 300.387 527.534 339.957 507.693C338.425 491.568 333.835 401.284 333.398 392.106C332.96 382.93 326.402 339.342 282.461 338.531V338.531Z" fill="#E0E0E0"/>
<path d="M294.033 344.868L291.851 306.006L269.974 307.063L266.834 345.03C273.291 348.183 287.033 348.247 294.033 344.868Z" fill="#EDA76A"/>
<path d="M253.912 286.134C256.307 292.56 256.259 297.506 252.206 299.368C248.156 301.23 239.396 298.78 237 292.352C234.602 285.919 235.946 279.203 240.001 277.342C244.051 275.482 251.516 279.706 253.912 286.134Z" fill="#FDC68A"/>
<path d="M243.901 293.763C247.158 315.769 262.314 330.542 283.701 328.588C303.157 326.81 316.611 298.664 317.157 272.986C317.704 247.309 304.411 226.998 280.92 227.375C244.942 227.951 237.04 247.389 243.901 293.763Z" fill="#FDC68A"/>
<path d="M305.684 284.085C303.21 290.481 303.199 295.425 307.231 297.339C311.258 299.252 320.044 296.916 322.517 290.518C324.994 284.118 323.727 277.387 319.698 275.473C315.672 273.559 308.156 277.686 305.684 284.085V284.085Z" fill="#FDC68A"/>
<path d="M272.025 282.584C274.185 281.66 276.536 281.084 278.946 281.131C281.31 281.186 283.917 281.742 285.743 283.801C286.62 284.832 287.013 286.448 286.565 287.776C286.152 289.109 285.297 290.135 284.352 290.926C282.453 292.529 280.195 293.404 277.945 294.034C280.018 292.926 282.065 291.736 283.683 290.149C284.469 289.35 285.155 288.433 285.392 287.431C285.676 286.444 285.414 285.436 284.759 284.659C284.121 283.859 283.153 283.301 282.139 282.904C281.118 282.493 280.009 282.289 278.889 282.165C276.64 281.949 274.327 282.153 272.025 282.584V282.584Z" fill="#9D5F54"/>
<path d="M268.398 281.498C268.189 282.327 267.371 282.826 266.567 282.611C265.765 282.394 265.284 281.547 265.492 280.717C265.7 279.886 266.519 279.388 267.322 279.602C268.124 279.818 268.606 280.668 268.398 281.498V281.498Z" fill="#5B3118"/>
<path d="M269.674 265.087C257.065 265.995 250.149 271.182 258.162 271.116C266.175 271.052 277.988 264.489 269.674 265.087Z" fill="#935025"/>
<path d="M288.062 281.498C288.27 282.327 289.089 282.826 289.892 282.611C290.693 282.394 291.175 281.547 290.967 280.717C290.757 279.886 289.939 279.388 289.137 279.602C288.334 279.818 287.854 280.668 288.062 281.498Z" fill="#5B3118"/>
<path d="M286.777 265.087C299.385 265.995 306.301 271.182 298.288 271.116C290.276 271.052 278.463 264.489 286.777 265.087Z" fill="#935025"/>
<path d="M257.382 285.708C257.382 286.585 255.185 287.295 252.477 287.295C249.769 287.295 247.573 286.585 247.573 285.708C247.573 284.833 249.769 284.123 252.477 284.123C255.185 284.123 257.382 284.833 257.382 285.708Z" fill="#F69D98"/>
<path d="M309.082 285.708C309.082 286.585 306.886 287.295 304.178 287.295C301.47 287.295 299.274 286.585 299.274 285.708C299.274 284.833 301.47 284.123 304.178 284.123C306.886 284.123 309.082 284.833 309.082 285.708Z" fill="#F69D98"/>
<path d="M245.604 309.022C250.19 319.772 256.596 327.524 263.932 330.508C277.209 335.909 288.711 334.229 298.54 328.496C320.66 315.594 316.243 250.242 316.243 250.242L309.996 251.505C309.996 251.505 311.636 294.403 305.876 301.431C303.423 304.424 293.498 298.591 280.364 298.46C264.837 298.302 252.082 305.46 249.815 302.252C247.096 298.416 242.962 275.98 247.847 251.176C249.793 241.291 238.298 250.858 238.298 250.858C238.298 250.858 239.677 295.123 245.604 309.022V309.022Z" fill="#AB662D"/>
<path d="M265.934 224.974L269.877 222.041C275.121 217.533 292.739 212.869 299.11 218.298C297.603 218.327 298.647 219.251 297.132 219.333C305.92 221.375 320.338 225.275 321.35 245.105C321.809 254.104 320.472 266.521 318.823 275.106C316.811 275.318 316.914 274.379 315.317 275.71C314.073 276.747 313.785 277.261 313.327 278.211C313.716 268.148 310.567 254.493 303.532 246.534C300.248 242.82 291.488 244.482 286.731 243.432C280.774 242.112 275.2 239.928 270.63 235.908C265.334 231.249 262.241 228.785 265.934 224.974V224.974Z" fill="#AB662D"/>
<path d="M273.494 221.868C279.181 223.877 286.568 225.446 289.796 231.125L288.029 230.575C293.993 237.971 276.258 258.094 271.685 262.896C266.463 268.383 259.68 271.158 253.156 272.781C253.001 271.595 253.136 270.291 253.4 269.053C253.666 268.349 253.864 267.675 253.924 267.102C253.726 267.708 253.542 268.371 253.4 269.053C252.669 270.955 251.358 273.09 250.312 274.201C247.876 276.79 242.122 284.876 241.574 291.165C233.638 258.473 232.153 239.544 246.899 225.811C254.378 218.843 269.585 220.488 273.494 221.868V221.868Z" fill="#AB662D"/>
<path d="M267.259 308.58C268.929 308.702 270.591 309.17 272.147 309.759C273.71 310.327 275.218 310.891 276.796 311.242C279.941 312.015 283.22 312.272 286.524 312.831C284.868 313.069 283.197 313.213 281.522 313.153C279.845 313.131 278.162 312.93 276.503 312.54C274.846 312.142 273.246 311.481 271.763 310.715C270.272 309.966 268.825 309.208 267.259 308.58V308.58Z" fill="#3F211B"/>
<path d="M332.738 222.616C329.582 219.706 325.621 212.25 319.109 210.126C312.596 208.004 306.025 210.388 300.959 216.993C295.893 223.6 298.05 225.662 299.603 224.615C301.158 223.568 308.455 217.241 312.253 217.233C316.05 217.224 319.478 221.903 325.499 224.436C331.563 226.985 332.529 225.555 332.738 222.616V222.616Z" fill="#FDC68A"/>
<path d="M331.95 217.574C331.117 219.837 328.09 223.108 323.811 225.027C336.212 237.926 355.753 282.51 360.971 295.629C366.189 308.746 383.98 311.124 391.562 301.444C398.845 292.146 399.877 281.319 376.833 258.393C356.152 237.817 331.95 217.574 331.95 217.574V217.574Z" fill="#ECECE8"/>
<path d="M171.426 340.925C166.573 341.994 165.072 335.951 165.945 333.234C166.82 330.517 167.049 327.399 166.565 324.98C166.079 322.56 166.249 320.022 168.157 319.675C170.065 319.326 169.79 322.561 170.689 327.866C171.59 333.173 176.807 339.742 171.426 340.925V340.925Z" fill="#FDC68A"/>
<path d="M645.6 324.4C653.721 321.006 666.953 324.069 678.473 338.7C690.963 354.562 695.379 378.026 698.029 437.45C699.654 473.902 695.148 518.937 695.148 518.937C695.148 518.937 647.983 541.374 605.818 518.444C605.105 496.501 608.678 406.013 613.919 372.479C619.159 338.947 633.212 329.577 645.6 324.4Z" fill="#5497FF"/>
<path d="M571.887 432.197C571.887 432.197 556.16 430.288 547.229 428.982C538.299 427.676 533.675 423.634 529.697 420.211C526.409 417.382 524.169 414.757 525.678 413.307C527.692 411.371 534.065 418.391 535.639 419.57C538.066 421.388 539.699 422.336 542.613 422.725C546.229 423.205 553.151 423.254 555.675 421.446C558.198 419.638 553.054 414.814 551.404 412.603C549.754 410.393 548.977 409.087 550.82 408.283C552.666 407.479 559.85 414.411 562.179 418.13C564.509 421.848 570.626 426.168 573.732 426.67C574.759 428.784 571.887 432.197 571.887 432.197Z" fill="#FABE7C"/>
<path d="M660.487 329.6L650.095 271.625L616.308 276.778L628.073 343.756C636.231 349.39 653.208 335.616 660.487 329.6V329.6Z" fill="#ED9F5E"/>
<path d="M654.239 310.678C654.239 310.678 619.966 348.113 606.355 340.392C604.303 339.23 593.154 318.886 592.392 317.392C585.421 303.718 578.493 279.518 578.158 268.701C577.258 239.619 596.444 214.241 617.565 216.434C638.683 218.63 687.842 234.755 654.239 310.678Z" fill="#FABE7C"/>
<path d="M591.239 287.277L591.32 287.196L589.676 284.808C585.815 292.342 580.562 298.336 575.906 304.483C590.577 313.439 600.145 299.639 593.962 285.815C592.795 286.136 591.784 286.845 591.239 287.277C590.645 287.858 590.717 287.696 591.239 287.277V287.277Z" fill="#FABE7C"/>
<path d="M609.236 217.153L609.236 217.432C609.236 217.287 609.236 217.202 609.236 217.153Z" fill="#855634"/>
<path d="M637.634 281.246C642.427 290.385 649.184 310.215 657.088 311.205C663.454 299.686 671.968 282.58 674.027 269.332C676.034 256.431 673.881 231.491 653.919 222.164C634.296 210.993 627.46 210.031 619.056 212.261C612.264 214.062 599.103 218.804 592.485 225.384C589.432 228.417 586.531 232.111 584.4 235.843C583.166 238.003 582.427 243.418 581.409 246.688L582.064 245.448C588.873 248.055 599.759 234.358 605.355 239.443C611.844 245.325 613.325 268.991 618.978 275.657C623.806 281.36 630.848 274.247 637.634 281.246Z" fill="#935025"/>
<path d="M641.958 280.139C642.016 287.286 637.381 296.432 632.843 296.469C628.304 296.506 624.574 290.749 624.516 283.601C624.458 276.454 626.569 266.723 632.601 267.023C637.133 267.25 641.9 272.991 641.958 280.139V280.139Z" fill="#FABE7C"/>
<path d="M578.935 251.263C584.493 253.5 596.638 252.283 600.739 251.611C602.985 251.242 605.209 250.792 607.417 250.277C604.839 248.286 602.217 246.013 600.462 243.913C598.283 241.305 590.991 233.814 589.317 232.894C589.246 234.253 589.891 235.988 590.239 237.587C587.08 233.75 581.871 231.565 578.79 227.546C578.547 229.944 578.728 232.246 579.174 234.72C576.742 233.155 575.04 230.435 573.537 228.216C572.368 231.732 573.91 236.63 574.866 240.461C575.447 242.795 576.856 247.543 578.935 251.263V251.263Z" fill="#CA8D51"/>
<path d="M618.272 311.81C617.874 312.692 617.262 313.445 616.625 314.121C615.987 314.805 615.291 315.408 614.591 315.998C613.159 317.142 611.698 318.202 610.02 319.047C611.07 317.446 612.434 316.18 613.837 315.013C615.262 313.848 616.739 312.873 618.272 311.81Z" fill="#935025"/>
<path d="M590.479 293.581C591.048 294.453 592.19 294.682 593.033 294.093C593.874 293.506 594.097 292.322 593.528 291.451C592.96 290.579 591.817 290.35 590.976 290.937C590.134 291.526 589.911 292.709 590.479 293.581V293.581Z" fill="#5B3118"/>
<path d="M582.532 275.152C597.458 270.872 607.497 273.944 598.212 277.252C588.927 280.562 572.689 277.973 582.532 275.152Z" fill="#935025"/>
<path d="M638.051 238.903C622.496 208.538 562.701 211.172 562.701 211.172C554.06 243.101 567.223 252.226 575.163 255.794C594.23 264.362 620.516 241.314 634.541 254.409C641.601 261.003 652.799 307.67 652.799 307.67C652.799 307.67 670.123 261.526 662.051 243.164C656.126 229.686 638.051 238.903 638.051 238.903Z" fill="#935025"/>
<path d="M655.774 217.026C652.239 217.249 651.268 218.875 651.268 218.875C654.202 214.376 653.052 207.748 653.052 207.748C645.886 211.13 646.057 216.817 646.057 216.817C643.371 209.267 633.305 206.035 633.305 206.035C633.1 212.042 638.71 218.729 639.026 218.947L643.6 227.866L654.806 227.13L654.174 221.922C656.215 219.441 655.774 217.026 655.774 217.026Z" fill="#935025"/>
<path d="M586.134 206.759C585.96 211.081 589.15 215.796 589.15 215.796C589.15 215.796 647.165 265.29 638.048 238.896C628.93 212.502 586.134 206.759 586.134 206.759Z" fill="#935025"/>
<path d="M667.382 337.443C655.63 337.283 645.949 347.818 644.891 375.184C644.158 394.15 645.536 416.972 646.172 426.028C646.321 428.133 644.641 429.882 642.605 429.74C628.06 428.718 577.262 425.162 573.908 425.162C569.991 425.162 567.677 433.455 572.305 436.035C576.935 438.615 618.597 456.122 641.387 461.282C664.177 466.442 682.595 465.469 684.118 456.307C687.114 438.279 688.212 385.725 686.075 368.403C683.939 351.079 680.913 337.628 667.382 337.443Z" fill="#0467FF"/>
<circle cx="516.88" cy="319.613" r="5.13687" fill="url(#paint8_linear_2066_221)"/>
<circle cx="542.564" cy="351.876" r="5.13687" fill="url(#paint9_linear_2066_221)"/>
<circle cx="558.831" cy="351.876" r="2.56843" fill="url(#paint10_linear_2066_221)"/>
<circle cx="554.066" cy="363.378" r="2.56843" transform="rotate(45 554.066 363.378)" fill="url(#paint11_linear_2066_221)"/>
<circle cx="542.288" cy="368.142" r="2.56843" transform="rotate(90 542.288 368.142)" fill="url(#paint12_linear_2066_221)"/>
<circle cx="530.786" cy="363.378" r="2.56843" transform="rotate(135 530.786 363.378)" fill="url(#paint13_linear_2066_221)"/>
<circle cx="526.297" cy="351.876" r="2.56843" fill="url(#paint14_linear_2066_221)"/>
<circle cx="531.062" cy="340.373" r="2.56843" transform="rotate(45 531.062 340.373)" fill="url(#paint15_linear_2066_221)"/>
<circle cx="542.288" cy="335.609" r="2.56843" transform="rotate(90 542.288 335.609)" fill="url(#paint16_linear_2066_221)"/>
<circle cx="553.79" cy="340.373" r="2.56843" transform="rotate(135 553.79 340.373)" fill="url(#paint17_linear_2066_221)"/>
<path d="M478.197 132.407C477.952 132.2 477.665 132.054 477.358 131.978C477.052 131.902 476.732 131.898 476.424 131.968L460 135.811L443.576 131.924C443.263 131.85 442.938 131.852 442.625 131.929C442.313 132.005 442.021 132.156 441.773 132.367C441.524 132.579 441.326 132.847 441.192 133.151C441.058 133.454 440.993 133.786 441.001 134.12V160.912C440.989 161.42 441.146 161.916 441.446 162.317C441.747 162.717 442.171 162.997 442.647 163.109L459.536 167.062H460.464L477.353 163.109C477.829 162.997 478.253 162.717 478.554 162.317C478.854 161.916 479.011 161.42 478.999 160.912V134.12C478.998 133.79 478.925 133.465 478.786 133.168C478.647 132.871 478.446 132.611 478.197 132.407ZM445.223 136.865L457.889 139.83V162.12L445.223 159.156V136.865ZM474.777 159.156L462.111 162.12V139.83L474.777 136.865V159.156Z" fill="#08FE90"/>
<g filter="url(#filter7_d_2066_221)">
<circle cx="460" cy="140" r="53" stroke="url(#paint18_linear_2066_221)" stroke-width="5" stroke-linecap="round" stroke-linejoin="round"/>
</g>
<g filter="url(#filter8_d_2066_221)">
<circle cx="761" cy="284" r="53" stroke="url(#paint19_linear_2066_221)" stroke-width="5" stroke-linecap="round" stroke-linejoin="round"/>
</g>
<path d="M746.434 297.415L761.007 285.276L775.581 297.865C776.062 298.278 776.666 298.506 777.291 298.511C777.689 298.512 778.083 298.422 778.444 298.247C778.806 298.072 779.125 297.817 779.38 297.5C779.609 297.216 779.781 296.888 779.887 296.535C779.993 296.182 780.031 295.811 779.998 295.443C779.965 295.075 779.863 294.717 779.696 294.39C779.53 294.063 779.302 293.773 779.028 293.537L762.744 279.487C762.259 279.073 761.65 278.847 761.021 278.847C760.392 278.847 759.783 279.073 759.298 279.487L743.014 293.06C742.735 293.292 742.504 293.578 742.332 293.903C742.161 294.228 742.053 294.585 742.015 294.953C741.977 295.321 742.01 295.694 742.112 296.049C742.213 296.404 742.382 296.734 742.607 297.022C742.833 297.308 743.111 297.546 743.426 297.721C743.741 297.896 744.086 298.005 744.442 298.041C744.797 298.078 745.156 298.042 745.498 297.934C745.84 297.827 746.158 297.65 746.434 297.415Z" fill="#08FE90"/>
<path d="M762.744 299.158C762.259 298.744 761.65 298.518 761.021 298.518C760.392 298.518 759.783 298.744 759.298 299.158L743.014 312.731C742.735 312.962 742.504 313.249 742.332 313.574C742.161 313.899 742.053 314.256 742.015 314.624C741.977 314.992 742.01 315.365 742.112 315.72C742.213 316.075 742.382 316.405 742.607 316.693C742.831 316.981 743.108 317.221 743.422 317.399C743.736 317.577 744.08 317.688 744.436 317.727C744.791 317.766 745.151 317.732 745.494 317.627C745.837 317.522 746.156 317.348 746.434 317.114L761.007 304.946L775.581 317.536C776.062 317.949 776.666 318.177 777.291 318.182C777.689 318.183 778.083 318.093 778.444 317.918C778.806 317.743 779.125 317.488 779.38 317.171C779.609 316.887 779.781 316.559 779.887 316.206C779.993 315.853 780.031 315.482 779.998 315.114C779.965 314.746 779.863 314.388 779.696 314.061C779.53 313.734 779.302 313.444 779.028 313.208L762.744 299.158Z" fill="#08FE90"/>
<g filter="url(#filter9_d_2066_221)">
<circle cx="84" cy="374" r="53" stroke="url(#paint20_linear_2066_221)" stroke-width="5" stroke-linecap="round" stroke-linejoin="round"/>
</g>
<rect x="66.7501" y="354.75" width="34.5" height="39.5" rx="3.25" fill="white" stroke="#08FE90" stroke-width="3.5" stroke-linecap="round" stroke-linejoin="round"/>
<rect x="72.7501" y="365.75" width="22.5" height="2.5" rx="1.25" fill="#08FE90" stroke="#08FE90" stroke-width="0.5"/>
<rect x="72.7501" y="372.75" width="12.5" height="2.5" rx="1.25" fill="#08FE90" stroke="#08FE90" stroke-width="0.5"/>
<rect x="72.7501" y="379.75" width="18.5" height="2.5" rx="1.25" fill="#08FE90" stroke="#08FE90" stroke-width="0.5"/>
<g filter="url(#filter10_d_2066_221)">
<circle cx="433" cy="600" r="53" stroke="url(#paint21_linear_2066_221)" stroke-width="5" stroke-linecap="round" stroke-linejoin="round"/>
</g>
<path d="M428.588 600.27C428.23 599.899 427.743 599.691 427.236 599.691C426.728 599.691 426.242 599.899 425.883 600.27C425.525 600.64 425.323 601.142 425.323 601.666C425.323 602.19 425.525 602.692 425.883 603.062L431.598 608.962C431.776 609.144 431.987 609.289 432.219 609.386C432.451 609.484 432.7 609.534 432.951 609.532C433.211 609.524 433.468 609.46 433.704 609.345C433.94 609.23 434.15 609.066 434.322 608.864L447.657 593.131C447.965 592.736 448.113 592.234 448.071 591.729C448.029 591.224 447.8 590.756 447.432 590.421C447.063 590.086 446.584 589.911 446.093 589.932C445.603 589.954 445.139 590.169 444.799 590.535L432.951 604.695L428.588 600.27Z" fill="#08FE90"/>
<path d="M450.095 599.699C449.59 599.699 449.105 599.907 448.748 600.275C448.391 600.644 448.19 601.145 448.19 601.666C448.19 605.839 446.585 609.84 443.727 612.791C440.869 615.741 436.992 617.399 432.951 617.399C429.941 617.398 426.999 616.476 424.496 614.751C421.993 613.026 420.041 610.574 418.885 607.705C417.73 604.836 417.424 601.678 418.004 598.629C418.585 595.581 420.028 592.778 422.149 590.574C423.56 589.098 425.242 587.927 427.097 587.131C428.952 586.334 430.942 585.927 432.951 585.933C434.169 585.941 435.382 586.086 436.57 586.366C436.818 586.445 437.08 586.471 437.339 586.442C437.597 586.413 437.847 586.33 438.074 586.197C438.3 586.064 438.497 585.885 438.654 585.671C438.811 585.456 438.923 585.211 438.984 584.95C439.045 584.689 439.054 584.418 439.01 584.153C438.966 583.889 438.87 583.636 438.727 583.411C438.585 583.186 438.4 582.994 438.183 582.846C437.966 582.698 437.721 582.598 437.465 582.551C435.985 582.191 434.471 582.007 432.951 582C429.187 582.02 425.514 583.191 422.394 585.364C419.274 587.538 416.848 590.616 415.421 594.212C413.995 597.807 413.632 601.758 414.378 605.567C415.125 609.375 416.947 612.869 419.616 615.609C423.153 619.262 427.947 621.32 432.951 621.332C438.003 621.332 442.848 619.26 446.421 615.572C449.993 611.884 452 606.882 452 601.666C452 601.145 451.799 600.644 451.442 600.275C451.085 599.907 450.6 599.699 450.095 599.699Z" fill="#08FE90"/>
<defs>
<filter id="filter0_d_2066_221" x="351.896" y="191.465" width="68.8422" height="68.8423" filterUnits="userSpaceOnUse" color-interpolation-filters="sRGB">
<feFlood flood-opacity="0" result="BackgroundImageFix"/>
<feColorMatrix in="SourceAlpha" type="matrix" values="0 0 0 0 0 0 0 0 0 0 0 0 0 0 0 0 0 0 127 0" result="hardAlpha"/>
<feMorphology radius="12" operator="erode" in="SourceAlpha" result="effect1_dropShadow_2066_221"/>
<feOffset dy="18"/>
<feGaussianBlur stdDeviation="20"/>
<feColorMatrix type="matrix" values="0 0 0 0 0.243137 0 0 0 0 0.741176 0 0 0 0 1 0 0 0 0.45 0"/>
<feBlend mode="normal" in2="BackgroundImageFix" result="effect1_dropShadow_2066_221"/>
<feBlend mode="normal" in="SourceGraphic" in2="effect1_dropShadow_2066_221" result="shape"/>
</filter>
<filter id="filter1_d_2066_221" x="699.491" y="356.701" width="68.8422" height="68.8423" filterUnits="userSpaceOnUse" color-interpolation-filters="sRGB">
<feFlood flood-opacity="0" result="BackgroundImageFix"/>
<feColorMatrix in="SourceAlpha" type="matrix" values="0 0 0 0 0 0 0 0 0 0 0 0 0 0 0 0 0 0 127 0" result="hardAlpha"/>
<feMorphology radius="12" operator="erode" in="SourceAlpha" result="effect1_dropShadow_2066_221"/>
<feOffset dy="18"/>
<feGaussianBlur stdDeviation="20"/>
<feColorMatrix type="matrix" values="0 0 0 0 0.243137 0 0 0 0 0.741176 0 0 0 0 1 0 0 0 0.45 0"/>
<feBlend mode="normal" in2="BackgroundImageFix" result="effect1_dropShadow_2066_221"/>
<feBlend mode="normal" in="SourceGraphic" in2="effect1_dropShadow_2066_221" result="shape"/>
</filter>
<filter id="filter2_d_2066_221" x="562.508" y="486.835" width="68.8422" height="68.8423" filterUnits="userSpaceOnUse" color-interpolation-filters="sRGB">
<feFlood flood-opacity="0" result="BackgroundImageFix"/>
<feColorMatrix in="SourceAlpha" type="matrix" values="0 0 0 0 0 0 0 0 0 0 0 0 0 0 0 0 0 0 127 0" result="hardAlpha"/>
<feMorphology radius="12" operator="erode" in="SourceAlpha" result="effect1_dropShadow_2066_221"/>
<feOffset dy="18"/>
<feGaussianBlur stdDeviation="20"/>
<feColorMatrix type="matrix" values="0 0 0 0 0.243137 0 0 0 0 0.741176 0 0 0 0 1 0 0 0 0.45 0"/>
<feBlend mode="normal" in2="BackgroundImageFix" result="effect1_dropShadow_2066_221"/>
<feBlend mode="normal" in="SourceGraphic" in2="effect1_dropShadow_2066_221" result="shape"/>
</filter>
<filter id="filter3_d_2066_221" x="306.507" y="464.562" width="106.54" height="106.541" filterUnits="userSpaceOnUse" color-interpolation-filters="sRGB">
<feFlood flood-opacity="0" result="BackgroundImageFix"/>
<feColorMatrix in="SourceAlpha" type="matrix" values="0 0 0 0 0 0 0 0 0 0 0 0 0 0 0 0 0 0 127 0" result="hardAlpha"/>
<feOffset dy="18"/>
<feGaussianBlur stdDeviation="20"/>
<feColorMatrix type="matrix" values="0 0 0 0 0.243137 0 0 0 0 0.741176 0 0 0 0 1 0 0 0 0.45 0"/>
<feBlend mode="normal" in2="BackgroundImageFix" result="effect1_dropShadow_2066_221"/>
<feBlend mode="normal" in="SourceGraphic" in2="effect1_dropShadow_2066_221" result="shape"/>
</filter>
<filter id="filter4_d_2066_221" x="554.803" y="437.179" width="71.4106" height="71.4106" filterUnits="userSpaceOnUse" color-interpolation-filters="sRGB">
<feFlood flood-opacity="0" result="BackgroundImageFix"/>
<feColorMatrix in="SourceAlpha" type="matrix" values="0 0 0 0 0 0 0 0 0 0 0 0 0 0 0 0 0 0 127 0" result="hardAlpha"/>
<feMorphology radius="12" operator="erode" in="SourceAlpha" result="effect1_dropShadow_2066_221"/>
<feOffset dy="18"/>
<feGaussianBlur stdDeviation="20"/>
<feColorMatrix type="matrix" values="0 0 0 0 0.243137 0 0 0 0 0.741176 0 0 0 0 1 0 0 0 0.45 0"/>
<feBlend mode="normal" in2="BackgroundImageFix" result="effect1_dropShadow_2066_221"/>
<feBlend mode="normal" in="SourceGraphic" in2="effect1_dropShadow_2066_221" result="shape"/>
</filter>
<filter id="filter5_d_2066_221" x="142.141" y="436.323" width="71.4106" height="71.4106" filterUnits="userSpaceOnUse" color-interpolation-filters="sRGB">
<feFlood flood-opacity="0" result="BackgroundImageFix"/>
<feColorMatrix in="SourceAlpha" type="matrix" values="0 0 0 0 0 0 0 0 0 0 0 0 0 0 0 0 0 0 127 0" result="hardAlpha"/>
<feMorphology radius="12" operator="erode" in="SourceAlpha" result="effect1_dropShadow_2066_221"/>
<feOffset dy="18"/>
<feGaussianBlur stdDeviation="20"/>
<feColorMatrix type="matrix" values="0 0 0 0 0.243137 0 0 0 0 0.741176 0 0 0 0 1 0 0 0 0.45 0"/>
<feBlend mode="normal" in2="BackgroundImageFix" result="effect1_dropShadow_2066_221"/>
<feBlend mode="normal" in="SourceGraphic" in2="effect1_dropShadow_2066_221" result="shape"/>
</filter>
<filter id="filter6_d_2066_221" x="473.469" y="506.527" width="63.7053" height="63.7053" filterUnits="userSpaceOnUse" color-interpolation-filters="sRGB">
<feFlood flood-opacity="0" result="BackgroundImageFix"/>
<feColorMatrix in="SourceAlpha" type="matrix" values="0 0 0 0 0 0 0 0 0 0 0 0 0 0 0 0 0 0 127 0" result="hardAlpha"/>
<feMorphology radius="12" operator="erode" in="SourceAlpha" result="effect1_dropShadow_2066_221"/>
<feOffset dy="18"/>
<feGaussianBlur stdDeviation="20"/>
<feColorMatrix type="matrix" values="0 0 0 0 0.243137 0 0 0 0 0.741176 0 0 0 0 1 0 0 0 0.45 0"/>
<feBlend mode="normal" in2="BackgroundImageFix" result="effect1_dropShadow_2066_221"/>
<feBlend mode="normal" in="SourceGraphic" in2="effect1_dropShadow_2066_221" result="shape"/>
</filter>
<filter id="filter7_d_2066_221" x="376.5" y="74.5" width="167" height="167" filterUnits="userSpaceOnUse" color-interpolation-filters="sRGB">
<feFlood flood-opacity="0" result="BackgroundImageFix"/>
<feColorMatrix in="SourceAlpha" type="matrix" values="0 0 0 0 0 0 0 0 0 0 0 0 0 0 0 0 0 0 127 0" result="hardAlpha"/>
<feMorphology radius="12" operator="erode" in="SourceAlpha" result="effect1_dropShadow_2066_221"/>
<feOffset dy="18"/>
<feGaussianBlur stdDeviation="20"/>
<feColorMatrix type="matrix" values="0 0 0 0 0.6 0 0 0 0 0.87451 0 0 0 0 1 0 0 0 0.4 0"/>
<feBlend mode="normal" in2="BackgroundImageFix" result="effect1_dropShadow_2066_221"/>
<feBlend mode="normal" in="SourceGraphic" in2="effect1_dropShadow_2066_221" result="shape"/>
</filter>
<filter id="filter8_d_2066_221" x="677.5" y="218.5" width="167" height="167" filterUnits="userSpaceOnUse" color-interpolation-filters="sRGB">
<feFlood flood-opacity="0" result="BackgroundImageFix"/>
<feColorMatrix in="SourceAlpha" type="matrix" values="0 0 0 0 0 0 0 0 0 0 0 0 0 0 0 0 0 0 127 0" result="hardAlpha"/>
<feMorphology radius="12" operator="erode" in="SourceAlpha" result="effect1_dropShadow_2066_221"/>
<feOffset dy="18"/>
<feGaussianBlur stdDeviation="20"/>
<feColorMatrix type="matrix" values="0 0 0 0 0.6 0 0 0 0 0.87451 0 0 0 0 1 0 0 0 0.4 0"/>
<feBlend mode="normal" in2="BackgroundImageFix" result="effect1_dropShadow_2066_221"/>
<feBlend mode="normal" in="SourceGraphic" in2="effect1_dropShadow_2066_221" result="shape"/>
</filter>
<filter id="filter9_d_2066_221" x="0.5" y="308.5" width="167" height="167" filterUnits="userSpaceOnUse" color-interpolation-filters="sRGB">
<feFlood flood-opacity="0" result="BackgroundImageFix"/>
<feColorMatrix in="SourceAlpha" type="matrix" values="0 0 0 0 0 0 0 0 0 0 0 0 0 0 0 0 0 0 127 0" result="hardAlpha"/>
<feMorphology radius="12" operator="erode" in="SourceAlpha" result="effect1_dropShadow_2066_221"/>
<feOffset dy="18"/>
<feGaussianBlur stdDeviation="20"/>
<feColorMatrix type="matrix" values="0 0 0 0 0.6 0 0 0 0 0.87451 0 0 0 0 1 0 0 0 0.4 0"/>
<feBlend mode="normal" in2="BackgroundImageFix" result="effect1_dropShadow_2066_221"/>
<feBlend mode="normal" in="SourceGraphic" in2="effect1_dropShadow_2066_221" result="shape"/>
</filter>
<filter id="filter10_d_2066_221" x="349.5" y="534.5" width="167" height="167" filterUnits="userSpaceOnUse" color-interpolation-filters="sRGB">
<feFlood flood-opacity="0" result="BackgroundImageFix"/>
<feColorMatrix in="SourceAlpha" type="matrix" values="0 0 0 0 0 0 0 0 0 0 0 0 0 0 0 0 0 0 127 0" result="hardAlpha"/>
<feMorphology radius="12" operator="erode" in="SourceAlpha" result="effect1_dropShadow_2066_221"/>
<feOffset dy="18"/>
<feGaussianBlur stdDeviation="20"/>
<feColorMatrix type="matrix" values="0 0 0 0 0.6 0 0 0 0 0.87451 0 0 0 0 1 0 0 0 0.4 0"/>
<feBlend mode="normal" in2="BackgroundImageFix" result="effect1_dropShadow_2066_221"/>
<feBlend mode="normal" in="SourceGraphic" in2="effect1_dropShadow_2066_221" result="shape"/>
</filter>
<linearGradient id="paint0_linear_2066_221" x1="379.896" y1="201.465" x2="393.818" y2="202.767" gradientUnits="userSpaceOnUse">
<stop stop-color="#1884FF"/>
<stop offset="1" stop-color="#49CDFF"/>
</linearGradient>
<linearGradient id="paint1_linear_2066_221" x1="727.491" y1="366.701" x2="741.413" y2="368.003" gradientUnits="userSpaceOnUse">
<stop stop-color="#1884FF"/>
<stop offset="1" stop-color="#49CDFF"/>
</linearGradient>
<linearGradient id="paint2_linear_2066_221" x1="590.508" y1="496.835" x2="604.43" y2="498.138" gradientUnits="userSpaceOnUse">
<stop stop-color="#1884FF"/>
<stop offset="1" stop-color="#49CDFF"/>
</linearGradient>
<linearGradient id="paint3_linear_2066_221" x1="346.507" y1="486.562" x2="375.278" y2="489.253" gradientUnits="userSpaceOnUse">
<stop stop-color="#1884FF"/>
<stop offset="1" stop-color="#49CDFF"/>
</linearGradient>
<linearGradient id="paint4_linear_2066_221" x1="582.803" y1="447.179" x2="599.509" y2="448.742" gradientUnits="userSpaceOnUse">
<stop stop-color="#1884FF"/>
<stop offset="1" stop-color="#49CDFF"/>
</linearGradient>
<linearGradient id="paint5_linear_2066_221" x1="170.141" y1="446.323" x2="186.847" y2="447.885" gradientUnits="userSpaceOnUse">
<stop stop-color="#1884FF"/>
<stop offset="1" stop-color="#49CDFF"/>
</linearGradient>
<linearGradient id="paint6_linear_2066_221" x1="501.469" y1="516.527" x2="509.822" y2="517.308" gradientUnits="userSpaceOnUse">
<stop stop-color="#1884FF"/>
<stop offset="1" stop-color="#49CDFF"/>
</linearGradient>
<linearGradient id="paint7_linear_2066_221" x1="167.929" y1="225.707" x2="167.929" y2="332.14" gradientUnits="userSpaceOnUse">
<stop stop-color="#01FF88"/>
<stop offset="1" stop-color="#43F3DB"/>
</linearGradient>
<linearGradient id="paint8_linear_2066_221" x1="516.88" y1="314.477" x2="516.88" y2="324.75" gradientUnits="userSpaceOnUse">
<stop stop-color="#01FF88"/>
<stop offset="1" stop-color="#42F4DA"/>
</linearGradient>
<linearGradient id="paint9_linear_2066_221" x1="542.564" y1="346.739" x2="542.564" y2="357.013" gradientUnits="userSpaceOnUse">
<stop stop-color="#01FF88"/>
<stop offset="1" stop-color="#42F4DA"/>
</linearGradient>
<linearGradient id="paint10_linear_2066_221" x1="558.831" y1="349.307" x2="558.831" y2="354.444" gradientUnits="userSpaceOnUse">
<stop stop-color="#01FF88"/>
<stop offset="1" stop-color="#42F4DA"/>
</linearGradient>
<linearGradient id="paint11_linear_2066_221" x1="554.066" y1="360.809" x2="554.066" y2="365.946" gradientUnits="userSpaceOnUse">
<stop stop-color="#01FF88"/>
<stop offset="1" stop-color="#42F4DA"/>
</linearGradient>
<linearGradient id="paint12_linear_2066_221" x1="542.288" y1="365.574" x2="542.288" y2="370.711" gradientUnits="userSpaceOnUse">
<stop stop-color="#01FF88"/>
<stop offset="1" stop-color="#42F4DA"/>
</linearGradient>
<linearGradient id="paint13_linear_2066_221" x1="530.786" y1="360.81" x2="530.786" y2="365.946" gradientUnits="userSpaceOnUse">
<stop stop-color="#01FF88"/>
<stop offset="1" stop-color="#42F4DA"/>
</linearGradient>
<linearGradient id="paint14_linear_2066_221" x1="526.297" y1="349.307" x2="526.297" y2="354.444" gradientUnits="userSpaceOnUse">
<stop stop-color="#01FF88"/>
<stop offset="1" stop-color="#42F4DA"/>
</linearGradient>
<linearGradient id="paint15_linear_2066_221" x1="531.062" y1="337.805" x2="531.062" y2="342.941" gradientUnits="userSpaceOnUse">
<stop stop-color="#01FF88"/>
<stop offset="1" stop-color="#42F4DA"/>
</linearGradient>
<linearGradient id="paint16_linear_2066_221" x1="542.288" y1="333.04" x2="542.288" y2="338.177" gradientUnits="userSpaceOnUse">
<stop stop-color="#01FF88"/>
<stop offset="1" stop-color="#42F4DA"/>
</linearGradient>
<linearGradient id="paint17_linear_2066_221" x1="553.79" y1="337.805" x2="553.79" y2="342.942" gradientUnits="userSpaceOnUse">
<stop stop-color="#01FF88"/>
<stop offset="1" stop-color="#42F4DA"/>
</linearGradient>
<linearGradient id="paint18_linear_2066_221" x1="407" y1="87" x2="460" y2="193" gradientUnits="userSpaceOnUse">
<stop stop-color="#1C8AFF"/>
<stop offset="1" stop-color="#47CAFF" stop-opacity="0.5"/>
</linearGradient>
<linearGradient id="paint19_linear_2066_221" x1="761" y1="231" x2="761" y2="337" gradientUnits="userSpaceOnUse">
<stop stop-color="#1C8AFF"/>
<stop offset="1" stop-color="#47CAFF" stop-opacity="0.5"/>
</linearGradient>
<linearGradient id="paint20_linear_2066_221" x1="137" y1="427" x2="31" y2="321" gradientUnits="userSpaceOnUse">
<stop stop-color="#1C8AFF"/>
<stop offset="1" stop-color="#47CAFF" stop-opacity="0.5"/>
</linearGradient>
<linearGradient id="paint21_linear_2066_221" x1="486" y1="547" x2="433" y2="653" gradientUnits="userSpaceOnUse">
<stop stop-color="#1C8AFF"/>
<stop offset="1" stop-color="#47CAFF" stop-opacity="0.5"/>
</linearGradient>
</defs>
</svg>
