<svg xmlns:xlink="http://www.w3.org/1999/xlink" xmlns="http://www.w3.org/2000/svg" width="80" height="88" viewBox="0 0 80 88" fill="none">
<rect x="80" y="28" width="61.0415" height="61.0415" rx="7.22666" transform="rotate(112.85 80 28)" fill="#FAFAFA"/>
<path d="M33.8538 57.7523C33.5185 57.6753 33.1672 57.776 32.9237 58.019L31.1317 59.8068C30.5408 60.3964 29.5302 60.0451 29.4323 59.2161L29.1067 56.4593C29.0695 56.1441 28.8849 55.8652 28.6092 55.708L26.2084 54.3383C25.5015 53.935 25.5468 52.9011 26.2863 52.5611L28.6591 51.4704C28.9621 51.3312 29.1757 51.05 29.2287 50.7207L29.6471 48.1212C29.7818 47.2849 30.8302 46.9843 31.3875 47.6222L33.1199 49.605C33.3393 49.8561 33.6695 49.9813 34.0002 49.9389L36.5905 49.6065C37.3978 49.5029 37.9841 50.3556 37.5983 51.0723L36.2881 53.5061C36.1377 53.7855 36.1288 54.1198 36.2643 54.4069L37.4491 56.9174C37.8054 57.6723 37.1345 58.5056 36.3209 58.3188L33.8538 57.7523Z" fill="#FFB700"/>
<path d="M34.5928 71.7906C34.4252 71.7521 34.2495 71.8024 34.1277 71.9239L32.8676 73.1811C32.5721 73.4759 32.0669 73.3003 32.0179 72.8858L31.7925 70.977C31.7739 70.8194 31.6816 70.68 31.5437 70.6014L29.8904 69.6581C29.5369 69.4565 29.5596 68.9395 29.9293 68.7695L31.5783 68.0115C31.7298 67.9419 31.8366 67.8013 31.8631 67.6367L32.1565 65.8139C32.2238 65.3958 32.748 65.2455 33.0267 65.5644L34.2414 66.9547C34.3511 67.0803 34.5162 67.1429 34.6816 67.1217L36.4817 66.8907C36.8853 66.8389 37.1785 67.2653 36.9856 67.6236L36.0833 69.2996C36.0081 69.4394 36.0037 69.6065 36.0714 69.75L36.8917 71.4882C37.0699 71.8657 36.7344 72.2824 36.3276 72.1889L34.5928 71.7906Z" fill="#FFB700"/>
<path d="M23.1853 77.3211C23.1183 77.3057 23.048 77.3258 22.9993 77.3744L21.9127 78.4585C21.7945 78.5764 21.5924 78.5062 21.5728 78.3404L21.3824 76.7284C21.375 76.6653 21.338 76.6096 21.2829 76.5781L19.8969 75.7874C19.7555 75.7067 19.7645 75.4999 19.9124 75.4319L21.3122 74.7885C21.3728 74.7607 21.4155 74.7044 21.4261 74.6386L21.6781 73.0727C21.7051 72.9055 21.9147 72.8453 22.0262 72.9729L23.0697 74.1673C23.1136 74.2175 23.1797 74.2425 23.2458 74.2341L24.7738 74.038C24.9353 74.0172 25.0525 74.1878 24.9754 74.3311L24.219 75.7362C24.1889 75.7921 24.1871 75.859 24.2142 75.9164L24.907 77.3843C24.9782 77.5353 24.8441 77.702 24.6813 77.6646L23.1853 77.3211Z" fill="#FFB700"/>
<path fill-rule="evenodd" clip-rule="evenodd" d="M3 16V14H4V16H6V17H4V19H3V17H1L1 16H3Z" fill="#0055FF"/>
<path fill-rule="evenodd" clip-rule="evenodd" d="M13 10.5C13 11.8807 11.8807 13 10.5 13C9.11929 13 8 11.8807 8 10.5C8 9.11929 9.11929 8 10.5 8C11.8807 8 13 9.11929 13 10.5ZM9.2 10.5C9.2 11.218 9.78203 11.8 10.5 11.8C11.218 11.8 11.8 11.218 11.8 10.5C11.8 9.78203 11.218 9.2 10.5 9.2C9.78203 9.2 9.2 9.78203 9.2 10.5Z" fill="#FFB700"/>
<path fill-rule="evenodd" clip-rule="evenodd" d="M61.02 60.519L51.5955 64.3267L51.1599 62.9536L62.5722 58.4619L67.2687 69.7914L65.9784 70.4319L62.1707 61.0074L55.3329 77.1162L54.1822 76.6278L61.02 60.519Z" fill="#0055FF" stroke="#0055FF"/>
<path fill-rule="evenodd" clip-rule="evenodd" d="M18.008 31.8259L12.8702 33.9017L12.6327 33.1532L18.8541 30.7045L21.4144 36.8808L20.711 37.2299L18.6352 32.0922L14.9076 40.8739L14.2803 40.6076L18.008 31.8259Z" fill="#0055FF" stroke="#0055FF"/>
<g filter="url(#filter0_d_2060_71904)">
<path d="M57.6369 27.2359C57.1589 27.1896 56.7002 27.4245 56.4613 27.8441L51.9816 35.6942C51.7789 36.0485 51.7669 36.4807 51.9518 36.8466L55.4047 43.6939C55.6118 44.1055 56.0518 44.3289 56.5122 44.3281L56.8718 44.2669C57.1902 44.1597 57.4672 43.9192 57.6167 43.6154C60.0333 38.7428 60.4087 33.2199 58.6716 28.0607C58.5198 27.6048 58.1149 27.2822 57.6369 27.2359Z" fill="#0048D9"/>
<path d="M52.1439 39.7349C51.8485 39.8343 51.5148 39.8199 51.2146 39.671L38.304 33.2644C37.7262 32.9777 37.4721 32.2892 37.7259 31.6951L42.2349 21.1497C45.3414 13.4228 52.3452 6.70085 59.7431 4.38467C60.363 4.19135 61.0272 4.52091 61.2482 5.13154C63.8765 12.3781 62.7623 22.0648 58.4735 29.2358L52.8156 39.1816C52.6604 39.4531 52.4192 39.6422 52.1439 39.7349Z" fill="#E5EEFF"/>
<path d="M55.1586 21.9628C54.1725 22.2948 53.0617 22.251 52.0604 21.7541C50.0571 20.7587 49.2357 18.3191 50.229 16.3149C51.2238 14.3101 53.6634 13.4887 55.6682 14.4835C57.6714 15.4788 58.4928 17.9184 57.4996 19.9227C57.0016 20.9261 56.143 21.6314 55.1586 21.9628Z" fill="#B1D6FB"/>
<path d="M42.5113 20.4859C37.5971 22.2895 33.627 25.8441 31.2909 30.5491L31.2562 30.619C31.0512 31.0323 31.0973 31.5254 31.3751 31.8926C31.6534 32.2613 32.1143 32.4401 32.5673 32.3561L37.8612 31.3802L42.2356 21.1473C42.3243 20.9274 42.416 20.7064 42.5113 20.4859Z" fill="#0048D9"/>
<path d="M44.1628 38.6545C44.3617 38.762 44.4324 39.0086 44.3207 39.2051L42.2994 42.7645C42.1877 42.9611 41.936 43.0333 41.7372 42.9257C41.5383 42.8182 41.4676 42.5716 41.5793 42.3751L43.6006 38.8157C43.7123 38.6191 43.964 38.5469 44.1628 38.6545Z" fill="#FFB700"/>
<path d="M40.8816 37.8088C41.0804 37.9163 41.1511 38.1629 41.0395 38.3594L39.0181 41.9188C38.9065 42.1154 38.6548 42.1876 38.4559 42.08C38.2571 41.9725 38.1864 41.7259 38.298 41.5294L40.3194 37.97C40.431 37.7734 40.6827 37.7012 40.8816 37.8088Z" fill="#FFB700"/>
<path d="M46.6394 40.924C46.8382 41.0315 46.9089 41.2781 46.7973 41.4747L44.7759 45.0341C44.6643 45.2306 44.4126 45.3028 44.2137 45.1953C44.0149 45.0877 43.9442 44.8412 44.0558 44.6446L46.0772 41.0852C46.1888 40.8886 46.4405 40.8164 46.6394 40.924Z" fill="#FFB700"/>
</g>
<defs>
<filter id="filter0_d_2060_71904" x="27.1328" y="0.330078" width="39.5234" height="48.916" filterUnits="userSpaceOnUse" color-interpolation-filters="sRGB">
<feFlood flood-opacity="0" result="BackgroundImageFix"/>
<feColorMatrix in="SourceAlpha" type="matrix" values="0 0 0 0 0 0 0 0 0 0 0 0 0 0 0 0 0 0 127 0" result="hardAlpha"/>
<feOffset/>
<feGaussianBlur stdDeviation="2"/>
<feColorMatrix type="matrix" values="0 0 0 0 0.101961 0 0 0 0 0.101961 0 0 0 0 0.101961 0 0 0 0.2 0"/>
<feBlend mode="normal" in2="BackgroundImageFix" result="effect1_dropShadow_2060_71904"/>
<feBlend mode="normal" in="SourceGraphic" in2="effect1_dropShadow_2060_71904" result="shape"/>
</filter>
</defs>
</svg>