<svg xmlns:xlink="http://www.w3.org/1999/xlink" xmlns="http://www.w3.org/2000/svg" width="80" height="80" viewBox="0 0 80 80" fill="none">
<rect x="29.1094" y="2.03516" width="54.5501" height="54.5501" rx="4" transform="rotate(27.0765 29.1094 2.03516)" fill="#F5FAFF"/>
<path fill-rule="evenodd" clip-rule="evenodd" d="M52.4417 8.71113L64.4547 21.1836L64.4547 66.6925C64.4547 67.7152 63.6789 68.434 62.8825 68.434L20.1036 68.434C19.3073 68.434 18.5314 67.7152 18.5314 66.6925L18.5314 10.4527C18.5314 9.43006 19.3073 8.71127 20.1036 8.71127L52.4417 8.71113ZM53.2971 7.88721C53.0733 7.65476 52.7644 7.52344 52.4417 7.52344L20.1036 7.52358C18.5857 7.52358 17.3437 8.8417 17.3438 10.4527L17.3438 66.6925C17.3438 68.3035 18.5857 69.6216 20.1036 69.6216L62.8825 69.6216C64.4004 69.6216 65.6424 68.3035 65.6424 66.6925L65.6424 21.1836C65.6424 20.8763 65.5233 20.581 65.3101 20.3597L53.2971 7.88721Z" fill="#D1D1D1"/>
<path d="M65.643 21.3231L51.8434 7.52347V21.3231L65.643 21.3231Z" fill="#D1D1D1"/>
<path d="M62.2222 1.33398V3.55621H60V4.66732H62.2222V6.88954H63.3333V4.66732H65.5556V3.55621H63.3333V1.33398H62.2222Z" fill="#BF2626"/>
<path fill-rule="evenodd" clip-rule="evenodd" d="M77.6651 14.4451C77.6651 15.6724 76.6702 16.6673 75.4429 16.6673C74.2156 16.6673 73.2207 15.6724 73.2207 14.4451C73.2207 13.2178 74.2156 12.2229 75.4429 12.2229C76.6702 12.2229 77.6651 13.2178 77.6651 14.4451ZM74.2875 14.4451C74.2875 15.0833 74.8048 15.6007 75.443 15.6007C76.0812 15.6007 76.5986 15.0833 76.5986 14.4451C76.5986 13.8069 76.0812 13.2896 75.443 13.2896C74.8048 13.2896 74.2875 13.8069 74.2875 14.4451Z" fill="#BF2626"/>
<rect x="6" y="6" width="27.7513" height="15.0157" rx="2.19675" fill="#3D99F5"/>
<path d="M9.32812 17.6788V9.80124H11.5512C12.1553 9.80124 12.699 9.87776 13.1823 10.0308C13.6656 10.1838 14.0804 10.4215 14.4268 10.7436C14.7731 11.0578 15.0389 11.4605 15.2242 11.9519C15.4095 12.4432 15.5021 13.0272 15.5021 13.7038C15.5021 14.3804 15.4095 14.9684 15.2242 15.4677C15.0389 15.9671 14.7772 16.382 14.4389 16.7122C14.1006 17.0344 13.6938 17.276 13.2186 17.4371C12.7514 17.5982 12.2278 17.6788 11.6479 17.6788H9.32812ZM11.1042 16.241H11.4425C11.7808 16.241 12.0869 16.1967 12.3607 16.1081C12.6346 16.0195 12.8682 15.8785 13.0615 15.6852C13.2548 15.4839 13.4038 15.2221 13.5085 14.8999C13.6213 14.5777 13.6777 14.179 13.6777 13.7038C13.6777 13.2366 13.6213 12.8459 13.5085 12.5318C13.4038 12.2096 13.2548 11.9559 13.0615 11.7706C12.8682 11.5773 12.6346 11.4404 12.3607 11.3598C12.0869 11.2793 11.7808 11.239 11.4425 11.239H11.1042V16.241Z" fill="white"/>
<path d="M20.1992 17.8238C19.6676 17.8238 19.1803 17.7311 18.7373 17.5459C18.3023 17.3526 17.9278 17.0787 17.6136 16.7243C17.2995 16.3699 17.0538 15.939 16.8766 15.4315C16.7075 14.9241 16.6229 14.3481 16.6229 13.7038C16.6229 13.0594 16.7075 12.4875 16.8766 11.9881C17.0538 11.4806 17.2995 11.0578 17.6136 10.7195C17.9278 10.3731 18.3023 10.1113 18.7373 9.93414C19.1803 9.74888 19.6676 9.65625 20.1992 9.65625C20.7308 9.65625 21.2141 9.74888 21.649 9.93414C22.0921 10.1113 22.4706 10.3731 22.7848 10.7195C23.0989 11.0658 23.3405 11.4927 23.5097 12.0002C23.6869 12.4996 23.7755 13.0674 23.7755 13.7038C23.7755 14.3481 23.6869 14.9241 23.5097 15.4315C23.3405 15.939 23.0989 16.3699 22.7848 16.7243C22.4706 17.0787 22.0921 17.3526 21.649 17.5459C21.2141 17.7311 20.7308 17.8238 20.1992 17.8238ZM20.1992 16.2893C20.7389 16.2893 21.1658 16.0598 21.4799 15.6007C21.794 15.1335 21.9511 14.5012 21.9511 13.7038C21.9511 12.9144 21.794 12.2982 21.4799 11.8552C21.1658 11.4122 20.7389 11.1907 20.1992 11.1907C19.6595 11.1907 19.2326 11.4122 18.9185 11.8552C18.6044 12.2982 18.4473 12.9144 18.4473 13.7038C18.4473 14.5012 18.6044 15.1335 18.9185 15.6007C19.2326 16.0598 19.6595 16.2893 20.1992 16.2893Z" fill="white"/>
<path d="M28.543 17.8238C28.0436 17.8238 27.5724 17.7392 27.1294 17.57C26.6864 17.3928 26.2958 17.1351 25.9575 16.7968C25.6272 16.4585 25.3654 16.0396 25.1721 15.5402C24.9788 15.0328 24.8821 14.4488 24.8821 13.7883C24.8821 13.1359 24.9828 12.556 25.1842 12.0485C25.3856 11.533 25.6554 11.098 25.9937 10.7436C26.332 10.3892 26.7267 10.1194 27.1777 9.93414C27.6288 9.74888 28.104 9.65625 28.6034 9.65625C29.1109 9.65625 29.566 9.76096 29.9687 9.97039C30.3715 10.1718 30.7057 10.4094 30.9715 10.6832L30.0291 11.8189C29.8278 11.6337 29.6143 11.4847 29.3888 11.3719C29.1713 11.2511 28.9216 11.1907 28.6397 11.1907C28.3739 11.1907 28.1202 11.2511 27.8785 11.3719C27.6449 11.4847 27.4395 11.6498 27.2623 11.8673C27.0932 12.0848 26.9562 12.3506 26.8515 12.6647C26.7549 12.9788 26.7065 13.3332 26.7065 13.7279C26.7065 14.5415 26.8797 15.1737 27.2261 15.6248C27.5724 16.0678 28.0356 16.2893 28.6155 16.2893C28.9377 16.2893 29.2237 16.2209 29.4733 16.0839C29.7311 15.939 29.9566 15.7617 30.1499 15.5523L31.0924 16.6639C30.4319 17.4371 29.5821 17.8238 28.543 17.8238Z" fill="white"/>
<rect x="8" y="42" width="24.7359" height="14.68" rx="2.09191" fill="#FFB700"/>
<path d="M12.904 53.132C12.354 53.132 11.892 53.0257 11.518 52.813C11.1513 52.6003 10.8433 52.274 10.594 51.834L11.694 51.02C11.826 51.262 11.98 51.4417 12.156 51.559C12.332 51.6763 12.5116 51.735 12.695 51.735C12.9883 51.735 13.2083 51.647 13.355 51.471C13.509 51.2877 13.586 50.9577 13.586 50.481V45.828H15.203V50.613C15.203 50.9577 15.1553 51.284 15.06 51.592C14.972 51.9 14.8326 52.1677 14.642 52.395C14.4586 52.6223 14.2203 52.802 13.927 52.934C13.641 53.066 13.3 53.132 12.904 53.132ZM16.8616 53V45.828H19.3256C19.7216 45.828 20.092 45.8683 20.4366 45.949C20.7813 46.0223 21.082 46.1507 21.3386 46.334C21.5953 46.51 21.797 46.7483 21.9436 47.049C22.0976 47.3423 22.1746 47.7053 22.1746 48.138C22.1746 48.556 22.0976 48.919 21.9436 49.227C21.797 49.535 21.5953 49.788 21.3386 49.986C21.082 50.184 20.785 50.3307 20.4476 50.426C20.1103 50.5213 19.751 50.569 19.3696 50.569H18.4786V53H16.8616ZM18.4786 49.282H19.2706C20.1506 49.282 20.5906 48.9007 20.5906 48.138C20.5906 47.764 20.4733 47.5 20.2386 47.346C20.004 47.192 19.6666 47.115 19.2266 47.115H18.4786V49.282ZM26.5824 53.132C26.091 53.132 25.629 53.055 25.1964 52.901C24.771 52.7397 24.4007 52.505 24.0854 52.197C23.77 51.889 23.5207 51.5077 23.3374 51.053C23.1614 50.591 23.0734 50.0593 23.0734 49.458C23.0734 48.864 23.165 48.336 23.3484 47.874C23.5317 47.4047 23.781 47.0087 24.0964 46.686C24.419 46.3633 24.793 46.1177 25.2184 45.949C25.6437 45.7803 26.0947 45.696 26.5714 45.696C27.092 45.696 27.5394 45.7913 27.9134 45.982C28.2874 46.1727 28.5917 46.389 28.8264 46.631L27.9794 47.665C27.796 47.5037 27.6017 47.368 27.3964 47.258C27.191 47.148 26.9344 47.093 26.6264 47.093C26.3477 47.093 26.091 47.148 25.8564 47.258C25.629 47.3607 25.431 47.511 25.2624 47.709C25.0937 47.907 24.9617 48.149 24.8664 48.435C24.7784 48.721 24.7344 49.0437 24.7344 49.403C24.7344 50.1437 24.8994 50.7193 25.2294 51.13C25.5667 51.5333 26.0727 51.735 26.7474 51.735C26.894 51.735 27.037 51.7167 27.1764 51.68C27.3157 51.6433 27.4294 51.5883 27.5174 51.515V50.283H26.3294V48.963H28.9474V52.263C28.698 52.505 28.368 52.7103 27.9574 52.879C27.5467 53.0477 27.0884 53.132 26.5824 53.132Z" fill="white"/>
<rect x="14" y="60" width="26.0207" height="15.0949" rx="2.22829" fill="#FF8000"/>
<path d="M17.3281 72.2192V64.2285H20.0734C20.5146 64.2285 20.9272 64.2735 21.3112 64.3633C21.6952 64.445 22.0302 64.588 22.3162 64.7923C22.6021 64.9884 22.8268 65.2539 22.9902 65.5889C23.1618 65.9157 23.2476 66.3201 23.2476 66.8022C23.2476 67.2679 23.1618 67.6723 22.9902 68.0155C22.8268 68.3587 22.6021 68.6405 22.3162 68.8611C22.0302 69.0817 21.6993 69.2451 21.3234 69.3514C20.9476 69.4576 20.5473 69.5107 20.1224 69.5107H19.1297V72.2192H17.3281ZM19.1297 68.0768H20.0121C20.9925 68.0768 21.4828 67.6519 21.4828 66.8022C21.4828 66.3855 21.352 66.0914 21.0906 65.9198C20.8291 65.7482 20.4533 65.6624 19.9631 65.6624H19.1297V68.0768Z" fill="white"/>
<path d="M24.6288 72.2192V64.2285H27.3741C27.8153 64.2285 28.2279 64.2735 28.6119 64.3633C28.9959 64.445 29.3309 64.588 29.6168 64.7923C29.9028 64.9884 30.1275 65.2539 30.2909 65.5889C30.4625 65.9157 30.5483 66.3201 30.5483 66.8022C30.5483 67.2679 30.4625 67.6723 30.2909 68.0155C30.1275 68.3587 29.9028 68.6405 29.6168 68.8611C29.3309 69.0817 29 69.2451 28.6241 69.3514C28.2483 69.4576 27.848 69.5107 27.4231 69.5107H26.4304V72.2192H24.6288ZM26.4304 68.0768H27.3128C28.2932 68.0768 28.7835 67.6519 28.7835 66.8022C28.7835 66.3855 28.6527 66.0914 28.3913 65.9198C28.1298 65.7482 27.754 65.6624 27.2638 65.6624H26.4304V68.0768Z" fill="white"/>
<path d="M33.3184 72.2192V65.7482H31.1247V64.2285H37.326V65.7482H35.1323V72.2192H33.3184Z" fill="white"/>
<rect x="23" y="24" width="26.0207" height="15.0949" rx="2.22829" fill="#00CC44"/>
<path d="M27.3906 35.1341L29.3816 31.4491L27.5116 27.9621H29.3156L29.9426 29.3151C30.0233 29.4837 30.104 29.6634 30.1846 29.8541C30.2653 30.0374 30.357 30.2427 30.4596 30.4701H30.5036C30.5843 30.2427 30.6613 30.0374 30.7346 29.8541C30.8153 29.6634 30.8923 29.4837 30.9656 29.3151L31.5376 27.9621H33.2646L31.4056 31.5261L33.3856 35.1341H31.5816L30.8666 33.6711C30.7786 33.4804 30.6906 33.2934 30.6026 33.1101C30.522 32.9194 30.4303 32.7141 30.3276 32.4941H30.2836C30.203 32.7141 30.1223 32.9194 30.0416 33.1101C29.961 33.2934 29.8803 33.4804 29.7996 33.6711L29.1286 35.1341H27.3906Z" fill="white"/>
<path d="M34.3578 35.1341V27.9621H35.9748V33.7701H38.8128V35.1341H34.3578Z" fill="white"/>
<path d="M41.9287 35.2661C41.4593 35.2661 40.99 35.1817 40.5207 35.0131C40.0587 34.8371 39.6443 34.5767 39.2777 34.2321L40.2017 33.1211C40.4583 33.3411 40.7407 33.5207 41.0487 33.6601C41.364 33.7994 41.672 33.8691 41.9727 33.8691C42.31 33.8691 42.5593 33.8067 42.7207 33.6821C42.8893 33.5574 42.9737 33.3887 42.9737 33.1761C42.9737 33.0661 42.948 32.9707 42.8967 32.8901C42.8527 32.8094 42.783 32.7397 42.6877 32.6811C42.5997 32.6151 42.4897 32.5564 42.3577 32.5051C42.233 32.4464 42.0937 32.3841 41.9397 32.3181L41.0047 31.9221C40.8213 31.8487 40.6417 31.7534 40.4657 31.6361C40.297 31.5187 40.143 31.3831 40.0037 31.2291C39.8717 31.0677 39.7653 30.8844 39.6847 30.6791C39.604 30.4664 39.5637 30.2281 39.5637 29.9641C39.5637 29.6707 39.626 29.3957 39.7507 29.1391C39.8753 28.8751 40.0513 28.6477 40.2787 28.4571C40.506 28.2591 40.7737 28.1051 41.0817 27.9951C41.397 27.8851 41.7417 27.8301 42.1157 27.8301C42.5337 27.8301 42.9443 27.9107 43.3477 28.0721C43.7583 28.2334 44.1177 28.4681 44.4257 28.7761L43.6007 29.7991C43.366 29.6157 43.1313 29.4764 42.8967 29.3811C42.662 29.2784 42.4017 29.2271 42.1157 29.2271C41.837 29.2271 41.6133 29.2857 41.4447 29.4031C41.2833 29.5131 41.2027 29.6707 41.2027 29.8761C41.2027 29.9861 41.2283 30.0814 41.2797 30.1621C41.3383 30.2354 41.4153 30.3051 41.5107 30.3711C41.6133 30.4297 41.7307 30.4884 41.8627 30.5471C41.9947 30.5984 42.1377 30.6571 42.2917 30.7231L43.2157 31.0971C43.6557 31.2731 44.0003 31.5151 44.2497 31.8231C44.5063 32.1311 44.6347 32.5381 44.6347 33.0441C44.6347 33.3447 44.5723 33.6307 44.4477 33.9021C44.3303 34.1661 44.1543 34.4007 43.9197 34.6061C43.6923 34.8041 43.41 34.9654 43.0727 35.0901C42.7353 35.2074 42.354 35.2661 41.9287 35.2661Z" fill="white"/>
<rect x="52" y="52" width="24" height="24" rx="4" fill="#F23030"/>
<path fill-rule="evenodd" clip-rule="evenodd" d="M68.7071 56.5L69.8536 55.3536L69.1464 54.6465L67.1464 56.6465L66.7929 57L67.1464 57.3536L69.1464 59.3536L69.8536 58.6465L68.7071 57.5L69.5 57.5C70.3284 57.5 71 58.1716 71 59V61H72V59C72 57.6193 70.8807 56.5 69.5 56.5L68.7071 56.5ZM58.1464 72.6465L59.2929 71.5H58.5C57.1193 71.5 56 70.3807 56 69V67L57 67V69C57 69.8285 57.6716 70.5 58.5 70.5H59.2929L58.1464 69.3536L58.8536 68.6465L60.8536 70.6465L61.2071 71L60.8536 71.3536L58.8536 73.3536L58.1464 72.6465ZM64 57H58H57V58V65V66H58H63V70V71H64H70H71V70V63V62H70H65V58V57H64ZM64 63H65H70V70H64V66V65V63ZM64 58V62H63V63V65H58V58H64Z" fill="white"/>
</svg>